<?xml version="1.0" encoding="UTF-8"?>
<svg id="Layer_1" data-name="Layer 1" xmlns="http://www.w3.org/2000/svg" viewBox="0 0 800 440.87">
  <defs>
    <style>
      .cls-1 {
        fill: #ebe9ed;
      }
    </style>
  </defs>
  <path class="cls-1" d="M102.58,420.34s0,0,0,0c-1.93,1.68-4.65,3.29-4.4,5.5h31.57c-3.9-14.15-27.17-5.5-27.17-5.5Z"/>
  <path class="cls-1" d="M167.06,425.42c-.03.14-.06.27-.09.41h31.59c.29-2.09-2.9-3.89-4.82-5.62-2.88-1-22.73-7.35-26.67,5.21Z"/>
  <path class="cls-1" d="M606.8,420.34c-.67.56-1.73,1.39-2.94,2.39-1.15,1.06-2.04,2.12-1.98,3.11h31.72c-.19-.64-.28-1.23-.3-1.81-5.35-11.54-26.49-3.69-26.49-3.69Z"/>
  <path class="cls-1" d="M167.06,425.42c-.03.14-.06.27-.09.41h31.59c.29-2.09-2.9-3.89-4.82-5.62-2.88-1-22.73-7.35-26.67,5.21Z"/>
  <path class="cls-1" d="M606.8,420.34c-.67.56-1.73,1.39-2.94,2.39-1.15,1.06-2.04,2.12-1.98,3.11h31.72c-.19-.64-.28-1.23-.3-1.81-5.35-11.54-26.49-3.69-26.49-3.69Z"/>
  <path class="cls-1" d="M671.14,425.83h31.12c.31-2.19-2.48-3.93-4.42-5.66-3.28-1.12-23.12-7.31-26.7,5.66Z"/>
  <path class="cls-1" d="M102.58,420.34s0,0,0,0c-1.93,1.68-4.65,3.29-4.4,5.5h31.57c-3.9-14.15-27.17-5.5-27.17-5.5Z"/>
  <path class="cls-1" d="M795.18,354.51l-4.23-28.47-2.55-101.82c-.1-3.84-.75-7.12-.36-10.87.85-8.2-4.81-15.21-13.15-15.41-3.55-.08-6.81.2-10.37-.23-1.96-8.68,2.46-23.12-9.04-24.51-4.76-.57-9.86,2.74-10.29,7.89l-1.4,16.7-34.07-.42c7.83-3.67,12.14-9.57,12.02-18.26-.3-20.95-3.53-41.7-8.96-62.09-1.48-5.54-4.06-12.27-8.97-15.13-12.76-7.41-41.2-8.73-30.47-24.8,6.1-9.14,5.3-20.52,8.13-30.81l2.52-9.13c.86-3.12,8.75-6.05,8.59-8.88-.05-.95-.46-2.62-1.64-3.42-4.43-3.02-6.11-9.18-9.23-12.87-8.88-3.03-18.17-4.57-25.65-10.45-2.51-1.97-5.34-1.62-7.81.2-7.54,5.55-16.68,7.48-25.47,10.3-3.19,4.41-5.46,10.46-10.19,13.85-4.82,3.46,9.16,9.38,8.35,11.45,5.2,13.44,1.79,25.67,10.1,38.68,2.17,3.39,3.93,7.86.93,11.38-1.54,1.8-3,3.91-5.3,4.81-8.76,3.41-17.87,5.25-26.18,9.9-4.35,2.44-7.37,8.55-8.71,13.47-5.67,20.83-8.95,42.1-9.43,63.65-.19,8.67,4.99,13.78,12.03,18.65l-388.33-.04c7.63-4.93,12-10.19,11.83-18.81-.4-19.57-2.95-38.86-7.66-58.1-5.97-24.36-14.27-19.97-34.39-28.05-3.04-1.22-4.86-2.57-6.89-4.91-3.35-3.87-1.64-7.83.89-11.61,7.6-11.36,5.24-23.96,9.9-39.11,1.06-3.44,12.72-7.88,8.17-11.36-4.67-3.58-7.19-9.85-10.46-14.27-9.64-2.61-18.98-4.8-26.88-11.04-1.25-.99-3.72-.59-4.9.23-14.96,10.3-26.74,8.36-28.64,13.57-1.78,4.88-5.23,8.33-8.61,12.05-3.05,3.35,7.69,7.44,8.62,10.8l2.44,8.78c2.83,10.21,1.93,21.41,8.02,30.53,2.32,3.48,3.25,7.33.75,10.79-2.45,3.41-4.88,4.67-8.71,6.09-21.53,7.94-27.69,5.01-33.13,27.48-4.67,19.27-7.45,38.57-7.84,58.26-.16,8.24,4.16,13.98,11.43,18.09l-33.36.54-1.82-17.38c-.51-4.86-5.45-7.81-9.88-7.39-4.34.41-7.86,4.17-8.15,9.04l-.92,15.65c-3.69.57-7.53.04-10.99.21-8.72.42-12.89,6.65-13.09,14.66l-2.91,115.41L.55,378.25c-.62,3.76-.6,6.96-.5,10.93.15,6.08,4.74,12.69,11.57,12.71l91.08.21c.44,4.68-.49,8.64.49,12.71.3,1.24,1.44,2.26,1.14,3.28-.24.8-.92,1.53-1.75,2.25,0,0,0,0,0,0,0,0,23.27-8.65,27.17,5.5-.36-3.42-.16-6.83,3.16-9.09l1.68-14.64,27.58.02c1.83,4.53.07,9.86,2.17,14.11,1.54,3.12,3.5,5.61,2.72,9.18,3.94-12.56,23.8-6.21,26.67-5.21-.74-.67-1.3-1.33-1.39-1.99-.19-1.41.98-2.41,1.35-3.72,1.16-4.17-.11-8.23.72-12.48h39.95c3.14,0,2.13-4.15,3.53-5.01,3.29-2.03,6.32-5.33,8.58-8.44l28.1-.37,7.2,13.81,237.23-.04,6.38-13.47c9.47-.53,18.97-.44,28.32.02,3.74,4.46,6.48,10.62,11.36,13.19l41.57.5c.46,4.56-.54,8.61.63,12.66.39,1.35,1.86,2.54,1.14,3.68-.77,1.23-2.92,2.7-4.54,4.18,1.21-1,2.27-1.83,2.94-2.39,0,0,21.15-7.85,26.49,3.69-.12-2.84,1.55-5.06,2.82-7.75,2.04-4.32.38-9.59,1.81-14.27h28.21c1.81,4.58.04,9.73,2.09,14.17,1.49,3.24,3.81,5.8,2.86,9.66h.07c3.58-12.97,23.42-6.78,26.7-5.66-.79-.7-1.44-1.4-1.68-2.12-.34-1.01.83-2.02,1.14-3.22,1.04-4.1.17-7.93.46-12.73l88.49-.02c6.9,0,12.49-4.37,13.43-11.21,1.52-11.09-2.79-24.86-4.5-36.35ZM753.2,178.11c8.13-2.1,5.5,13.4,6.45,19.58-3.77.46-6.87.38-10.67.11.93-6.32-1.48-18.22,4.22-19.69ZM672.35,92.42c.35,1.13-.24,2.85-.95,4.14l-7.87,14.12c-3.44-1.94-5.82-4.98-8.47-8.22l14.42-12.46c.86-.74,2.58,1.48,2.87,2.42ZM651.98,100.52l-12.11-10.44c-1.7-1.46-3.82-3.17-2.65-6.05,7.7,8.35,20.83,8.73,29.23,1.22.81-.86,1.72,0,1.58,1.27-5.19,5.31-10.38,9.47-16.05,14.01ZM646.82,13.71c1.22-2.67,8.77-2.95,10.48-.36,2.34,3.52.54,11.86-4.68,12.73-5.03.83-7.82-7.93-5.8-12.36ZM625.68,35.89c.22-.4.89-.77,1.81-1.05,16.4-4.93,33.66-5.02,50.02.09.72.23,1.19.46,1.45.63.61.42.45,1.16.19,2.79-17.34-5.96-35.98-6.09-53.29-.02-.2-.94-.5-1.87-.19-2.44ZM627.32,48.22l6.55,3.39c8.32,4.31,32.33,4.5,43.73-3.02-.3,14.89-7.77,38.97-25.95,38.52-16.41-.41-24.52-24.75-24.32-38.9ZM634.98,89.83c4.27,4.18,8.84,8.49,14.35,12.56-2.3,3.36-5.25,5.11-8.44,8.57l-8.84-16.52c-.81-1.51,1.3-4.64,2.93-4.61ZM171.97,95.55c.44-.81,1.67-.19,2.3.15,2.15,1.16-2.88,5.67,2.78,7.67l16.48,5.82c4.35,1.54,4.42-.15,6.69-2.47,3.7,4.63,5.62,10.01,6.92,15.86,4.15,18.66,7.22,37.4,7.23,56.46,0,4.52-1.68,8.75-4.35,11.35-13.67,13.31-62.6-12.12-78.34-19.84l3.78-14.25c18.94,3.2,36.43,7.01,55.36,11.87-.35-9.74-2.56-18.12-4.02-27.02-.17-1.05-1.25-1.8-2.1-1.59-2.84.71,1.79,14.33,1.19,18.81-11.86-10.09-17.94-1.75-30.46-1.76l-2.75-39.16c-.12-1.69,1.38-5.11,2.76-5.25,2.12.57,2.85,3.65,5.63,3.62l10.9-20.26ZM148.3,100.55l-13.44-11.6c-1.4-1.21-2.95-2.8-1.71-4.74,8.75,8.34,21.72,8.54,30.25.49,4.59,1.11-13.69,14.12-15.11,15.85ZM166.28,158.79c6.61-3.36,14.66-2.49,18.56,4.22l-18.56-4.22ZM168.48,92.49c.35,1.1-.03,2.71-.95,3.91l-7.58,14.46c-3.49-2.14-5.75-5.26-8.67-8.4l14.44-12.45c.91-.78,2.48,1.57,2.77,2.48ZM143.02,13.51c1.33-2.87,9.24-2.74,10.62.16,1.89,3.97.3,11.49-4.8,12.34-5.26.87-8.05-7.69-5.82-12.5ZM121.46,36.34c0-.58.58-1.13,1.59-1.44,16.53-4.98,34.08-5.24,50.49.23.97.32,1.61.67,1.64,1.26.03.47.02,2.09-1.13,1.7-17.11-5.75-34.81-5.67-51.7-.04-1.11.37-.89-1.24-.89-1.72ZM123.64,48.36c9.37,5.78,20.18,7.04,31.08,5.94,6.55-.52,12.08-2.17,18.61-6.11.21,15.04-6.9,37.92-23.67,38.86-17.83,1-26.16-23.02-26.02-38.7ZM128.34,92.46c.29-.91,1.66-3.14,2.66-2.66,4.87,4.47,9.16,8.75,14.81,12.62-2.47,3.12-4.66,4.86-8.51,8.41l-8.01-14.47c-.75-1.36-1.35-2.65-.94-3.9ZM45.81,177.96c2.09-.05,4.35,1.34,4.54,4.09l1.08,15.71c-3.92.47-7.33.34-11.06-.07,1.19-6.54-1.24-19.56,5.44-19.73ZM18.21,206.27c1.73-2.5,4.65-4.23,9.17-3.33-2.91,4.31-6.81,7.4-10.81,11.41-.76-3.04.16-5.92,1.64-8.08ZM103.09,327.99l.03,29.82-23.89,23.31c-4,6.16-9.62,10.4-14.22,16l-51.89-.22c4.99-6.82,11.03-11.32,16.08-16.68,17.44-18.5,35.72-35.33,53.77-52.29l20.22-21.65c.64,7.95-.12,14.78-.11,21.72ZM103.65,242.77l-42.94,45.23-48.35,50.95c-.32-4.04,1.42-7.38,1.52-11.27l1.22-45.69,67.61-71.18c8.46-9.98,5.47-8.78,19.8-8.11,1.93,1.34.24,4.82.33,6.24,1.75,10.66.91,22.92.8,33.82ZM94.43,194c-8.56-.73-12.89-8.14-12.5-16.53.62-13.44,5.17-61.06,14.45-70.8,1.18.98,1.37,2.01,1.95,2.43,1.07.76,2.76.76,4.12.28l19.3-6.86c2.3-.82-.76-5.99,1.06-6.94,1.06-.56,2.05-.52,2.7.72,3.52,6.74,6.74,13.34,10.74,19.92,2.56-1.29,3.28-2.89,4.97-4.39,2.52,1.82,3.29,4.46,3.04,7.48l-2.8,34.64c-3.94-1.49-7.47-.47-10.88-.98-7-1.04-13.71-.9-19.34,5.03-1.32-4.38,3.94-16.58,1.56-18.18-.7-.47-2.52-.21-2.79,1.31l-4.59,25.98c6.98,1.1,13.44.72,19.6,3.85l20.38,10.33c-13.77,5.86-37.49,13.87-50.99,12.72ZM131.47,157.02c-.82,3.9-1.79,7.04-3.2,11.18-6.31-1.85-11.11-3.4-17.24-3.9,3.98-8.71,12.31-9.22,20.44-7.28ZM135.15,396.99c.36-6.77-.85-13.77,5.19-16.32l17.84-19.37c1.35,6.92,1.2,13.28,1.89,19.61.6,5.52,1.5,10.49,1.52,16.15l-26.44-.06ZM143.21,314.13l3.72-39.7c.1-1.03.4-1.76.99-1.86,1.2-.21,1.64,1.05,1.76,2.13l3.28,28.98c-3.01,3.85-5.53,6.97-9.76,10.46ZM189.03,219.23c-.35,1.19-3.28,2.12-4.72,2.41-22.01,4.46-55.07,6.1-76.6-1.86l-.87-22.79c11-2.78,21.92-4.97,32.42-9.61.67,20.1-5.5,12.2,9.08,27.81,14.47-15.81,8.65-8.21,9.05-28.52,10.3,4.16,20.19,7.65,32.05,9.97l-.42,22.58ZM193.12,208.87c.1-2.08-.65-5.34.74-6.29h31.59c.7-.03,1.18.66.9,1.41-.13.36-.52.62-1,.47-1.51,2.28-3.33,4.59-5.95,5.53-7.69,11.06-17.87,19.41-26.8,29.58-.65-10.95-.37-20.78.52-30.7ZM606.78,380.83c-.14,5.32.79,10.63-.25,16.29l-41.24-.5c4.57-6.68,9.25-11.83,14.27-16.41l28.07-31.71-.85,32.32ZM607.63,327.02c-.25,1.55-48.32,1.07-41.63,1.78l-47.47,52.33c-1.69,1.86-2.56,3.94-4.58,6.14l-9.03,9.77-49.87.1c4.58-6.86,10.48-11.51,15.28-16.92l45.59-51.38c-19.63-.7-39.46-.48-59.29-.51.2,1.29-.52,2.34-1.64,3.53l-46.49,49.31c-4.35,4.61-7.46,11.28-13.31,15.67l-50.11.36c4.17-6.95,10.2-11.23,14.88-16.42l47.34-52.53-56.36-.1c-1.52,0-2.71.07-3.63.82-15.39,17.51-31.36,34.73-47.62,51.44-5.04,5.18-8.89,11.7-15.13,16.89l-4.97-10.35c-1.1-2.29-3.11-3.92-5.74-3.93l-25.7-.11c.35-2.11,2.28-2.55,3.19-3.55l46.03-50.97-53.99-.41c-2.36-.02-4.17.44-5.55,1.93l-44.28,47.57-.3-49.25c-.04-6.04-.54-11.32-.02-16.87,1.61-.57,3.09-.35,4.05-1.2l.69-28.78,8.64,29.12c2.71.36,4.97.74,7.2-.15l-.04-42.08c-1.72-.46-5.89-.96-6.09.55l-.49,23.58-7.5-24.37c-2.71-.17-4.69.06-7.05-.35l.02-18,50.57-.18,39.4-41.01c1.2-1.87,2.79-5.81,5.5-5.82l49.8-.17c-.58,2.92-3.12,3.62-4.45,5.07l-38.33,41.95,60.04-.04,35.05-37.95c1.97-.37,2.35-1.7,3.06-2.78,1.35-2.05,3.29-4.79,5.31-6.08l50.52-.28c-.7,3.43-4.21,4.61-5.97,6.55l-36.62,40.48,59.79.14,38.81-41.38c1.08-2.15,2.63-4.61,4.68-5.59l50.12-.07c-1.16,3.74-4.57,5.09-6.57,7.29l-35.93,39.61,59.49.17,31.14-33.34.1,51.53-15.35.32.19,42.81,14.97.39c-.2,5.35.54,10.52-.3,15.72ZM608.02,304.76l-8.32-.06.09-12.46,8.32.06-.09,12.46ZM608.16,285.85h-8.44v-11.74h8.44v11.74ZM599.51,194.1c-8.35-.3-13.91-7.08-13.69-15.78.52-20.8,3.96-41.21,9.21-61.34,1.01-3.87,2.91-7.85,5.54-10.02,1.39,1.64,3.14,3.44,5.63,2.45,5.96-2.37,11.89-4.32,17.98-6.23,4.48-1.4.94-5.29,2.12-7.21.28-.46,1.91-1.11,2.21-.59,3.98,6.88,7.09,13.92,11.55,20.71,2.48-1.1,3.21-2.87,5.24-4.32,2.63,2.03,3.08,5.15,2.81,8.33l-2.87,33.92c-3.92-1.74-7.6-.45-10.91-1.04-7.5-1.34-13.92-.58-19.88,5.37-.5-5.2,4.85-18.5,1.36-18.69-.63-.04-1.81.42-2.04,1.53-1.77,8.45-3.22,16.87-4.35,25.82,4.97.65,16.88,2.26,21.01,4.44l18.83,9.9c-13.45,5.79-36.15,13.25-49.77,12.75ZM635.54,157.54l-3.29,10.44c-6.18-1.35-11.33-3.37-17.37-3.64,3.72-8.47,13.06-9.78,20.66-6.8ZM660.92,343.47l-18.53,20.23,3.56-35.59c1.17-9.36.59-18.36,2.62-27.19.82-3.55,5.11-6.3,7.16-8.88,2.06,12.54,2.36,24.31,3.43,36.14.46,5.12,2.33,9.8,1.76,15.28ZM692.83,219.85c-21.81,7.5-58.63,6.82-80.71.57-1.18-7.88-.97-15.17-.95-23.57,11-2.72,21.56-4.81,32.11-9.51.43,20.43-5.67,12.3,9.25,27.92,14.51-16.13,8.25-8.86,8.77-28.77,10.55,4.83,21.14,7.97,32.47,10.37l-.94,22.99ZM635.64,170.35l3.59-13.97c18.76,2.79,36.13,6.95,53.9,11.41,1.33.33,1.84-1.62,1.69-2.41l-4.43-24.49c-.21-1.18-1.32-1.56-2.03-1.34-3.36,1.07,1.99,13.47,1.13,18.55-11.51-9.63-18.18-1.31-30.04-1.43-1.11-4.98-.64-9.9-1.14-15l-2.19-22.22c-.28-2.86.76-7.04,3.64-7.21,1.25.74,3,4.05,4.79,3.37,4.62-6.25,7.14-13.54,11.31-20.06.5-.78,1.65-.2,2.28.1,1.94.9-1.36,5.93.71,6.76,7.18,2.87,14.25,5.43,21.66,7.58,1.28.37,2.06-2.37,3.04-3.15,2.94,2.65,4.7,6.55,5.79,10.83,4.98,19.6,8.33,39.52,8.87,59.81.13,5.12-1.17,9.85-4.38,12.97-13.52,13.12-62.65-12.11-78.19-20.1ZM670.25,158.81c6.4-3.4,14.09-2.45,18.16,4.12l-18.16-4.12ZM696.5,244.36l33.55-35.63c1.38-1.76,2.9-5.97,5.52-5.99l38.39-.24c3.13-.02,6.3,1.4,7.93,3.88.86,1.31-.88,2.49-1.77,2.58l-82.66,91.34-.96-55.94ZM783.84,328.17c-14.46,18.14-29.03,35.49-44.16,52.22-4.98,5.51-8.81,11.56-14.05,16.62l-27.9-.06c-.14-5.93-.3-11.34-.05-16.75.19-4-.54-7.15.02-11.02l36.15-41.26,50.97-57.33,1.47,54.76c.04,1.67-1.51,2.51-2.47,2.82Z"/>
  <path class="cls-1" d="M173.23,144.16c7.36-2.68,7.88-10.25,6.68-16.55-4.21-2.14-10-2.71-14.22.13-.71,2.76-.64,7.02.18,10.14.63,2.39,4.66,7.26,7.36,6.28Z"/>
  <path class="cls-1" d="M669.36,127.63c-.32,8.48-1.54,12.37,7.16,17.2,7.4-3.38,8.79-10.15,7.18-17.27-4.46-2.15-9.38-1.97-14.34.07Z"/>
  <path class="cls-1" d="M331.12,288.66c-.02-6.23-.9-12.56-.02-18.78l-.02-.85c-.6-1.56-6.05-1.86-6.09-.2l-.58,23.43-7.47-23.93c-2.93-.53-5.28-.66-8.31-.04l.05,42.18c2.42.47,4.51.63,6.21-.11l.42-27.24,8.4,26.8c.71,1.56,5.65,1.36,6.9.25.14-3.52.76-8.1.51-11.57-.24-3.38,0-6.6,0-9.95Z"/>
  <path class="cls-1" d="M290.59,293.18c-.86-.14-.43-1.39-.36-1.99.55-5-.44-10.07.5-15.01l-.19-.92c-.65-1.91.5-4.71-.53-6.69-1.15-1.36-4.89-.61-6.78-.28l-.31,17.32c-2.63.34-4.79.47-7.28.1l-.38-17.46c-2.24-.57-4.3-.63-6.88.11l.07,42.04c2.06.88,4.47.68,7,.11l.41-15.45c.02-.57-.6-1.9-.03-2.61,2.09-.07,4.89-.83,6.71.3,1.45.94.27,3.67.31,4.89l.35,13.14c2.45.46,4.73.28,7.06-.19.09-1.88.16-3.36.51-4.85v-.9c-.66-3.78-.48-7.85-.16-11.65Z"/>
  <path class="cls-1" d="M530.2,268.31l.08,17.06c-2.44,1.03-5.56.93-7.99.03l-.13-17.12c-2.54-.63-4.57-.55-6.94,0v42.37c2.39.45,4.45.57,6.94.26l.24-18.24c2.6-.44,4.94-.47,7.63-.06l.35,18.07c2.39.36,4.52.77,6.93-.07l-.05-42.28c-2.42-.55-4.51-.62-7.07-.02Z"/>
  <path class="cls-1" d="M408.05,267.59c-1.92,2.78-.93,5.96,2,8.15l-.37,27.22c-.18,1.54-2.52,2.03-3.49,3.73-.65-1.16-2.28-2.42-2.89-3.96l-.1-27.08c2.74-2.04,3.44-5.27,1.74-8.12-5.33.43-8.88,4.5-9.04,9.63-.26,8.32-.35,16.63.02,24.87.28,6.08,5,9.33,10.66,9.34,5.19,0,9.98-3.07,10.28-8.73.48-8.96.44-17.99-.11-26.99-.28-4.55-4.09-7.9-8.7-8.06Z"/>
  <path class="cls-1" d="M357.04,287.27c-3.35.06-6.4-.66-9.4.33-1.16.38-.37,3.22-.56,4.17-.28,1.39,2.51,1.31,3.01,2.26.93,2.83.6,6.68-.38,9.63-.61,1.84-2.94,1.85-4.06,1.41-1.45-.56-2.54-1.89-2.54-3.83l.03-24.08c0-2.55,2.12-3.55,3.77-3.52,2.91.05,3.42,2.41,3.19,5.25-.07.83.01,1.98.32,2.69.35.81,5.61.49,6.26.05,1.09-.73.45-2.45.43-3.56-.09-6.71-4.22-10.79-10.7-10.56-5.63.2-10.21,3.64-10.37,9.63l-.31,11.6c-.06,2.1.55,4.26,0,7.07.5,3.22.03,6.77,1.51,10.18,1.96,4.51,6.65,5.89,11.36,5.25,11.38-1.56,8.33-15.45,8.45-23.97Z"/>
  <path class="cls-1" d="M499.45,305.23l-11.58-.95c-.07-4.22-.3-8.04.16-11.95,2.97-1.05,6.21.79,8.76-.91,1.03-.69.88-4.63-.08-5.18-2.4-1.28-5.66,0-8.63-.69-.42-3.59-.53-7.29.11-11.08,3.61-.71,7.98.52,11.17-.71,1.38-.53,1.15-5.55-.33-5.66-6.28-.45-11.97-.24-18.18-.06v43.04s18.63-.12,18.63-.12c.99-1.06,1.24-5.62-.03-5.73Z"/>
  <path class="cls-1" d="M561.11,273.87c1.25-.79,1.18-5.6-.28-5.74-6.14-.6-11.85-.14-18.01-.08l.16,43.03,18.48-.03c.43-1.72.91-4.84-.24-5.85-3.65-1.29-7.35.16-11.33-.65-.45-3.99-.48-8.08.03-12.13,2.99-.85,6.34.99,8.63-.87,1.2-.98.74-4.49-.04-5.34-2.41-.99-5.65.06-8.63-.52-.48-3.67-.62-7.47.12-11.23,3.63-.79,8.08.42,11.1-.58Z"/>
  <path class="cls-1" d="M464.27,304.47l-.06-12.2,8.79-.55c.42-2.04.63-4.07-.1-5.92l-8.58-.33c-.41-3.68-.35-7.21-.05-11.1l11.37-.22c.61-1.61,1.11-4.71-.14-6.15h-18.2s-.01,43.07-.01,43.07l18.66-.09c.42-2.38.65-4.49-.3-6.3-4.14-.11-7.57.3-11.38-.21Z"/>
  <path class="cls-1" d="M447.51,289.07c-3.24-2.8-11.41-9.03-7.71-13.98,1.15-1.53,3.65-5.99.81-7.02-3.44-1.24-6.98,2.87-7.82,5.62-4.17,13.54,9.62,17.23,12.34,24.1,1.02,2.58.59,7.65-2.68,7.67-3.47.03-3.85-4.86-3.85-7.52-2.34-.78-4.27-.6-6.59-.1.01,3.91-.16,8.61,3.72,11.53,3.46,2.61,10.39,2.78,13.47-.27,5.76-5.72,3.98-15.13-1.69-20.03Z"/>
  <path class="cls-1" d="M371.85,268.14c-.97,1.32-1.23,4.97.02,5.79,1.89,1.25,4.49-.31,6.47.6l.18,36.33c2.62.45,4.81.66,6.91-.31l.16-36.14,6.91-.27c.12-2.29.6-4.18-.19-6.22l-20.46.22Z"/>
  <path class="cls-1" d="M243.56,268.03c-.5,1.9-1.12,4.71.21,5.78,1.69,1.27,4.37-.16,6.58.66l.29,36.14c2.45.47,4.53.55,6.67-.18l.13-36.02c2.7-.47,4.65.2,6.77-.54.29-2.06.47-3.96-.08-5.88l-20.57.03Z"/>
  <path class="cls-1" d="M583.4,289.97c5.48-3.48,5.39-16.37,1.31-19.61-2.33-1.85-5.33-2.42-9.1-2.24-.57,1.83-.56,3.78-.27,5.96l4.43,1.1c3.61,15.87-5.42,8.57-4.42,15.84.28,2.03,1.82,2.25,3.59,3.64,2.86,2.24-.42,12.34,2.77,15.53,1.56,1.56,4.74.43,6.74.38-2.92-7.88,1.46-15.99-5.06-20.59Z"/>
  <path class="cls-1" d="M230.54,267.42c-.96,3.21-.72,6.15,2.26,8.07.22,9.27.41,18.19-.07,27.48-2.93,2.04-3.86,5.67-1.75,8.44,5.95-1.14,8.8-5.04,9.02-10.13l-.03-24.24c0-5.61-4.43-9.63-9.43-9.62Z"/>
  <path class="cls-1" d="M225.86,275.67c2.82-2.17,3.18-5.2,2.08-8.27-5.11.31-9.04,4.24-9.06,9.64l-.07,24.23c-.02,5.39,3.97,9.49,9.05,9.87,2.63-4.33-1.26-6.1-1.56-8.44-1.16-9.06-.11-18.01-.44-27.03Z"/>
  <rect class="cls-1" x="296.07" y="267.93" width="6.89" height="42.98"/>
  <rect class="cls-1" x="548.56" y="286.04" width="43.15" height="6.98" transform="translate(279.36 859.03) rotate(-89.87)"/>
  <path class="cls-1" d="M445,275.03l1.37,4.65c2.39.29,3.79.3,5.92-.17,1.26-5.13-2.21-12.21-8.38-11.83-1.93.84-.6,5.92,1.09,7.35Z"/>
  <path class="cls-1" d="M102.58,420.34c-2.81,2.35-12.52,9.52-11.61,13.74.92,4.22,3.67,6.79,3.67,6.79h22.76s16.25-.89,12.35-15.04h-31.57c-.25-2.21,2.47-3.82,4.4-5.5Z"/>
  <path class="cls-1" d="M198.56,425.83h-31.59c.04-.14.06-.28.09-.41-.04.14-.1.27-.14.41-3.9,14.15,12.35,15.04,12.35,15.04h22.76s2.75-2.57,3.67-6.79c.92-4.22-8.8-11.39-11.61-13.74,0,0-.13-.05-.36-.13,1.92,1.73,5.11,3.54,4.82,5.62Z"/>
  <path class="cls-1" d="M601.88,425.83c-.06-.99.83-2.05,1.98-3.11-3.89,3.2-9.37,8.13-8.67,11.35.92,4.22,3.67,6.79,3.67,6.79h22.76s16.25-.89,12.35-15.04c-.18-.66-.42-1.25-.68-1.81.02.58.11,1.17.3,1.81h-31.72Z"/>
  <path class="cls-1" d="M702.26,425.83h-31.12c-3.9,14.15,12.35,15.04,12.35,15.04h22.76s2.75-2.57,3.67-6.79c.92-4.22-8.8-11.39-11.61-13.74,0,0-.17-.06-.47-.17,1.94,1.73,4.73,3.47,4.42,5.66Z"/>
  <path class="cls-1" d="M671.14,425.83h31.12c.31-2.19-2.48-3.93-4.42-5.66-3.28-1.12-23.12-7.31-26.7,5.66Z"/>
</svg>