<?xml version="1.0" encoding="UTF-8"?>
<svg id="Layer_1" data-name="Layer 1" xmlns="http://www.w3.org/2000/svg" viewBox="0 0 16 16">
  <defs>
    <style>
      .cls-1 {
        fill: #3d52d5;
      }

      .cls-2 {
        fill: #fff;
      }
    </style>
  </defs>
  <path class="cls-1" d="M135.48,217.2H18.56v-36.33h23.38v-33.73h-23.38v-29.84C18.56,62.22-22.07,16.45-74.97,8.31V-63.04h-33.78V8.31c-52.9,8.14-93.53,53.91-93.53,108.99v29.84h-23.38v33.73h34.64l102.54,76.81h0s72.84,54.56,72.84,54.56c-4.07,38.41-36.7,68.43-76.22,68.43-42.26,0-76.65-34.34-76.65-76.55v-86.92h-150.69v33.73h23.38v163.47h33.78v-163.47h59.76v53.19c0,60.81,49.54,110.28,110.42,110.28s110.42-49.47,110.42-110.28v-8.43l-113.8-85.24h0s-73.27-54.88-73.27-54.88v-38.27c0-42.21,34.38-76.55,76.65-76.55S-15.21,75.09-15.21,117.3v29.84h-93.53v33.73H-15.21v70.06h93.53v163.47h33.78v-163.47h23.38v-33.73Z"/>
  <rect class="cls-1" y="0" width="16" height="16" rx="2.85" ry="2.85"/>
  <path class="cls-2" d="M5.04,7.91l3.05,2.29h0s1.95,1.46,1.95,1.46c-.11,1.03-.98,1.83-2.04,1.83-1.13,0-2.05-.92-2.05-2.05v-1.72l-.81-.61h-2.6v5.29h.91v-4.38h1.6v1.43c0,1.63,1.33,2.96,2.96,2.96s2.96-1.33,2.96-2.96v-.23l-3.05-2.29h0s-1.96-1.47-1.96-1.47v-1.03c0-1.13.92-2.05,2.05-2.05s2.05.92,2.05,2.05v.8h-1.4v.9s1.4,0,1.4,0v1.27l.81.61h1.7v4.38h.91v-5.29h-2.51v-2.68c0-1.48-1.09-2.7-2.51-2.92v-1.91h-.91v1.91c-1.42.22-2.51,1.45-2.51,2.92v.8s0,.66,0,.68Z"/>
</svg>