<?xml version="1.0" encoding="UTF-8"?>
<svg id="Layer_1" data-name="Layer 1" xmlns="http://www.w3.org/2000/svg" viewBox="0 0 242.82 60.76">
  <defs>
    <style>
      .cls-1 {
        fill: #3d52d5;
      }

      .cls-2, .cls-3 {
        fill: #272727;
      }

      .cls-3 {
        font-family: IBMPlexSans-SemiBold, 'IBM Plex Sans';
        font-size: 31.64px;
        font-variation-settings: 'wght' 600, 'wdth' 100;
        font-weight: 600;
      }

      .cls-4 {
        letter-spacing: .07em;
      }

      .cls-5 {
        letter-spacing: .06em;
      }
    </style>
  </defs>
  <g>
    <text class="cls-3" transform="translate(74.78 41.98)"><tspan class="cls-5" x="0" y="0">L</tspan><tspan class="cls-4" x="18.38" y="0">egislink</tspan></text>
    <path class="cls-2" d="M57.81,32.75h-9.58v-2.98h1.92v-2.76h-1.92v-2.45c0-4.51-3.33-8.27-7.67-8.93v-5.85h-2.77v5.85c-4.34.67-7.67,4.42-7.67,8.93v2.45h-1.92v2.76h2.84l8.41,6.3h0s5.97,4.47,5.97,4.47c-.33,3.15-3.01,5.61-6.25,5.61-3.46,0-6.28-2.81-6.28-6.27v-7.13h-12.35v2.76h1.92v13.4h2.77v-13.4h4.9v4.36c0,4.98,4.06,9.04,9.05,9.04s9.05-4.06,9.05-9.04v-.69l-9.33-6.99h0s-6.01-4.5-6.01-4.5v-3.14c0-3.46,2.82-6.27,6.28-6.27s6.28,2.81,6.28,6.27v2.45h-7.67v2.76h7.67v5.74h7.67v13.4h2.77v-13.4h1.92v-2.76Z"/>
  </g>
  <path class="cls-1" d="M5.16,313.9h-116.92v-36.33h23.38v-33.73h-23.38v-29.84c0-55.07-40.63-100.85-93.53-108.99V33.66h-33.78v71.35c-52.9,8.14-93.53,53.91-93.53,108.99v29.84h-23.38v33.73h34.64l102.54,76.81h0s72.84,54.56,72.84,54.56c-4.07,38.41-36.7,68.43-76.22,68.43-42.26,0-76.65-34.34-76.65-76.55v-86.92h-150.69v33.73h23.38v163.47h33.78v-163.47h59.76v53.19c0,60.81,49.54,110.28,110.42,110.28s110.42-49.47,110.42-110.28v-8.43l-113.8-85.24h0s-73.27-54.88-73.27-54.88v-38.27c0-42.21,34.38-76.55,76.65-76.55s76.65,34.34,76.65,76.55v29.84h-93.53v33.73h93.53v70.06H-52v163.47H-18.22v-163.47H5.16v-33.73Z"/>
</svg>